<?xml version="1.0" standalone="no"?>
<!DOCTYPE svg PUBLIC "-//W3C//DTD SVG 1.1//EN" "http://www.w3.org/Graphics/SVG/1.1/DTD/svg11.dtd" >
<!--
2013-9-30: Created.
-->
<svg>
<metadata>
Created by iconfont
</metadata>
<defs>

<font id="iconfont" horiz-adv-x="1024" >
  <font-face
    font-family="iconfont"
    font-weight="500"
    font-stretch="normal"
    units-per-em="1024"
    ascent="896"
    descent="-128"
  />
    <missing-glyph />
    
    <glyph glyph-name="x" unicode="x" horiz-adv-x="1001"
d="M281 543q-27 -1 -53 -1h-83q-18 0 -36.5 -6t-32.5 -18.5t-23 -32t-9 -45.5v-76h912v41q0 16 -0.5 30t-0.5 18q0 13 -5 29t-17 29.5t-31.5 22.5t-49.5 9h-133v-97h-438v97zM955 310v-52q0 -23 0.5 -52t0.5 -58t-10.5 -47.5t-26 -30t-33 -16t-31.5 -4.5q-14 -1 -29.5 -0.5
t-29.5 0.5h-32l-45 128h-439l-44 -128h-29h-34q-20 0 -45 1q-25 0 -41 9.5t-25.5 23t-13.5 29.5t-4 30v167h911zM163 247q-12 0 -21 -8.5t-9 -21.5t9 -21.5t21 -8.5q13 0 22 8.5t9 21.5t-9 21.5t-22 8.5zM316 123q-8 -26 -14 -48q-5 -19 -10.5 -37t-7.5 -25t-3 -15t1 -14.5
t9.5 -10.5t21.5 -4h37h67h81h80h64h36q23 0 34 12t2 38q-5 13 -9.5 30.5t-9.5 34.5q-5 19 -11 39h-368zM336 498v228q0 11 2.5 23t10 21.5t20.5 15.5t34 6h188q31 0 51.5 -14.5t20.5 -52.5v-227h-327z" />
    

    
    <glyph glyph-name="wifi" unicode="&#58911;" d="M683.317 64.639c-17.14 0-34.238 6.974-46.673 20.669-31.886 35.204-77.299 55.328-124.644 55.328-48.144 0-92.381-19.535-124.56-55.034-23.358-25.837-63.183-27.811-89.020-4.369-25.794 23.399-27.769 63.226-4.369 88.978 55.537 61.293 134.979 96.455 217.949 96.455 82.844 0 162.286-35.247 217.991-96.666 23.399-25.794 21.425-65.62-4.369-89.020-12.015-10.964-27.181-16.342-42.304-16.342zM823.127 222.304c-16.090 0-32.18 6.133-44.447 18.358-71.333 70.956-166.025 110.025-266.682 110.025-100.866 0-195.6-38.986-266.807-109.773-24.66-24.534-64.57-24.407-89.104 0.252-24.534 24.66-24.45 64.57 0.252 89.104 94.943 94.439 221.268 146.448 355.659 146.448 134.18 0 260.464-52.093 355.574-146.7 24.702-24.534 24.786-64.444 0.252-89.146-12.309-12.309-28.525-18.569-44.699-18.569zM962.644 379.717c-15.669 0-31.381 5.839-43.606 17.518-110.025 105.445-254.54 163.504-407.038 163.504-152.791 0-297.391-57.974-407.121-163.335-25.081-24.071-64.99-23.274-89.104 1.849-24.114 25.122-23.274 65.031 1.807 89.104 133.341 127.964 308.901 198.415 494.419 198.415 185.139 0 360.658-70.535 494.251-198.541 25.122-24.071 25.963-63.982 1.89-89.104-12.393-12.897-28.945-19.409-45.498-19.409zM435.877-27.404c0-42.042 34.081-76.123 76.123-76.123s76.123 34.081 76.123 76.123c0 42.042-34.081 76.123-76.123 76.123-42.042 0-76.123-34.081-76.123-76.123z"  horiz-adv-x="1024" />

    
    <glyph glyph-name="unfold" unicode="&#58892;" d="M890.336 481.088c-12.576 12.416-32.8 12.352-45.248-0.192L517.248 150.048 184.832 479.488c-12.576 12.448-32.8 12.352-45.28-0.192-12.448-12.576-12.352-32.832 0.192-45.28l353.312-350.112c0.544-0.544 1.248-0.672 1.792-1.184 0.128-0.128 0.16-0.288 0.288-0.416 6.24-6.176 14.4-9.28 22.528-9.28 8.224 0 16.48 3.168 22.72 9.472l350.112 353.312C902.976 448.384 902.88 468.64 890.336 481.088z"  horiz-adv-x="1024" />

    
    <glyph glyph-name="jiantouyou" unicode="&#58884;" d="M697.125 276.735l-205.92 225.369h-116.714l205.92-225.369-205.92-205.905h116.714l205.92 205.905zM697.125 276.735z"  horiz-adv-x="1024" />

    
    <glyph glyph-name="jiantouzuo" unicode="&#58895;" d="M374.492 276.735l205.92-205.905h116.714l-205.92 205.905 205.92 225.369h-116.714l-205.92-225.369zM374.492 276.735z"  horiz-adv-x="1024" />

    
    <glyph glyph-name="tuichu" unicode="&#58880;" d="M745.521113 196.371828l0 104.366999-258.907335 0 0 103.353926 258.907335 0L745.521113 507.459982 901.07223 351.915393 745.521113 196.371828zM694.353655 248.550211l0-207.731158-259.930684 0 0-155.535379-311.098142 155.544589L123.324829 715.177837l571.028826 0 0-258.896468-52.190807 0 0 206.707852L227.350317 662.989221l207.073677-103.687524 0-466.294029 207.739877 0 0 155.542542L694.353655 248.550211zM694.001623 248.222753"  horiz-adv-x="1024" />

    
    <glyph glyph-name="shangyi" unicode="&#58976;" d="M511.961 508.596l-205.873-205.92 132.393 0.076 0.378-235.163 146.471-0.183-0 235.359 132.58-0.089-205.949 205.92zM511.961 508.596z"  horiz-adv-x="1024" />

    
    <glyph glyph-name="xiayi" unicode="&#58977;" d="M512.039 67.405l205.872 205.919-132.393-0.076-0.378 235.163-146.471 0.184v-235.361l-132.578 0.089 205.949-205.917zM512.039 67.405z"  horiz-adv-x="1024" />

    
    <glyph glyph-name="kulian" unicode="&#58885;" d="M512 811.936C229.184 811.936 0 582.816 0 300 0 17.248 229.184-212 512-212s512 229.248 512 512C1024 582.816 794.752 811.936 512 811.936zM512-129.888c-237.376 0-429.76 192.512-429.76 429.824C82.176 537.376 274.56 729.824 512 729.824c237.312 0 429.824-192.448 429.824-429.824C941.824 62.624 749.248-129.888 512-129.888zM308.544 371.168m-94.464 0a1.476 1.476 0 1 0 188.928 0 1.476 1.476 0 1 0-188.928 0ZM715.456 371.168m-94.464 0a1.476 1.476 0 1 0 188.928 0 1.476 1.476 0 1 0-188.928 0ZM364.032 26.144c41.664 30.72 92.416 49.088 147.968 49.088s106.368-18.304 147.968-49.088c17.344-12.992 41.984-9.28 54.912 8.128 12.992 17.472 9.344 42.048-8.064 55.04C652.608 129.76 585.024 154.144 512 154.144c-73.024 0-140.608-24.384-194.88-64.832-17.408-12.992-21.056-37.568-8.128-55.04C321.984 16.864 346.624 13.216 364.032 26.144z"  horiz-adv-x="1024" />

    
    <glyph glyph-name="yonghu" unicode="&#58882;" d="M511.998 224c94.334 0 181.402 82.411 191.162 202.94 10.205 126.113-73.548 245.060-191.162 245.060-117.61 0-201.368-118.947-191.155-245.060 9.756-120.529 96.826-202.94 191.155-202.94zM510.289 158.945c-211.133 0-382.289-83.959-382.289-187.529 0-35.416 32.558-49.067 128.311-59.416 74.022-8 162.397-8 255.689-8 95.561 0 190.333 0 257.006 8 94.317 11.317 126.994 24 126.994 59.416 0 103.57-174.585 187.529-385.711 187.529z"  horiz-adv-x="1024" />

    
    <glyph glyph-name="zaixianyonghu" unicode="&#58896;" d="M195.881 619.808c0-131.074 106.256-237.33 237.33-237.33s237.33 106.256 237.33 237.33c0 131.074-106.256 237.33-237.33 237.33-131.074 0-237.33-106.256-237.33-237.33zM515.183 373.916c-26.938 5.649-54.449 8.56-81.972 8.56-52.265 0-104.519-10.394-152.807-30.398-48.287-20.004-92.586-49.601-129.546-86.552-36.953-36.961-66.548-81.26-86.551-129.546-20.005-48.288-30.398-100.542-30.398-152.806h464.618c-47.528 48.271-76.867 114.504-76.867 187.6 0.001 81.291 36.28 154.1 93.524 203.144zM729.187 438.188c-147.69 0-267.414-119.726-267.414-267.414 0-147.69 119.725-267.414 267.414-267.414s267.414 119.725 267.414 267.414c0 147.689-119.725 267.414-267.414 267.414zM678.219 4.962l-152.871 152.773 63.726 63.652 89.144-89.090 191.080 190.918 63.726-63.635z"  horiz-adv-x="1024" />

    
    <glyph glyph-name="jianhao" unicode="&#59152;" d="M768 364 256 364c-35.346 0-64-28.654-64-64s28.654-64 64-64l512 0c35.346 0 64 28.654 64 64S803.346 364 768 364z"  horiz-adv-x="1024" />

    
    <glyph glyph-name="lingdanghover" unicode="&#58881;" d="M801.962667 128.002133 801.962667 402.280533c0 142.830933-103.355733 261.307733-239.274667 285.405867L562.688 709.480533c0 18.8416-15.291733 34.133333-34.133333 34.133333l-34.133333 0c-18.8416 0-34.133333-15.291733-34.133333-34.133333l0-21.896533c-135.611733-24.3712-238.592-142.6944-238.592-285.303467l0-274.2784-119.808-96.9728 0-55.330133 819.2 0L921.088 31.029333 801.962667 128.002133zM511.488-143.4944c47.1552 0 85.418667 38.161067 85.418667 85.333333L426.120533-58.161067C426.154667-105.333333 464.384-143.4944 511.488-143.4944z"  horiz-adv-x="1024" />

    
    <glyph glyph-name="msnui-filter-inverse" unicode="&#58993;" d="M961.588 724.515q0-23.085-12.507-43.287l-0.963-0.963q0-0.963-0.481-1.443t-0.481-1.443l-346.287-416.507v-197.192q0-42.324-23.567-72.144t-65.891-29.82q-43.287 0-67.334 29.82t-24.048 72.144v198.153l-342.439 413.621q-17.315 22.125-17.315 49.058 0 17.315 6.735 32.224t17.795 25.973 25.973 17.315 32.224 6.252h735.86q34.629 0 58.677-24.048t24.048-57.714z"  horiz-adv-x="1024" />

    
    <glyph glyph-name="fuwuqi" unicode="&#58887;" d="M955.636 644.785c-7.544 55.599-91.941 90.231-102.645 94.355l-160.020 64.986c-7.414 2.369-15.792-0.591-19.826-7.281-4.080-6.624-2.807-15.155 2.895-20.464 27.371-25.179 36.759-75.185 37.022-75.185 0-7.325-1.667-619.64-1.667-635.476 0-44.699-32.723-71.369-34.302-72.598-6.315-4.912-8.159-13.511-4.429-20.441 2.939-5.615 8.817-8.992 15.044-8.992 1.58 0 3.159 0.22 4.694 0.659 7.501 2.104 138.087 51.366 151.071 55.621 112.69 36.67 113.918 101.658 113.918 104.377 0.351 210.86 1.625 325.37 2.369 391.695 0.965 90.712 1.007 92.467-4.124 128.745zM529.004 811.89h-351.273c-63.253 0-114.62-50.095-114.62-111.682v-631.769c0-61.543 51.366-111.638 114.62-111.638h351.273c63.166 0 114.576 50.095 114.576 111.638v631.769c-0.001 61.586-51.411 111.682-114.576 111.682zM334.681 95.066c-38.074 0-69.043 30.136-69.043 67.18 0 37.087 30.969 67.268 69.043 67.268 38.075 0 69.131-30.18 69.131-67.268 0-37.045-31.056-67.18-69.131-67.18zM552.428 386.593c0-28.335-21.495-51.387-47.988-51.387h-302.232c-26.495 0-48.077 23.051-48.077 51.387v122.121h398.297v-122.121zM552.428 541.788h-398.297v122.209c0 28.336 21.581 51.41 48.077 51.41h302.232c26.493 0 47.988-23.073 47.988-51.41v-122.209z"  horiz-adv-x="1024" />

    
    <glyph glyph-name="wangluo2" unicode="&#58889;" d="M512 814.47c-124.221 0-235.983-53.199-314.636-137.63-0.366 0.293-0.829 0.536-1.219 0.829l-9.777-12.946c-65.146-75.459-104.838-173.446-104.838-280.722 0-107.813 40.131-206.238 105.862-281.868l8.753-11.557c0.341 0.268 0.756 0.488 1.097 0.731 78.653-84.529 190.464-137.777 314.758-137.777 237.373 0 430.47 193.122 430.47 430.47 0 237.373-193.122 430.47-430.47 430.47zM536.381 540.77c58.953 2.146 115.444 11.362 166.985 26.526 14.994-47.689 24.113-101.644 26.185-158.939l-193.17-0v132.413zM536.381 589.507v173.666c61.147-11.947 114.59-68.389 149.821-150.162-46.129-13.263-96.768-21.431-149.821-23.503zM487.619 763.173v-173.836c-53.175 1.634-103.96 9.435-150.406 22.284 35.23 82.554 88.917 139.532 150.406 151.552zM487.619 540.599v-132.218h-193.17c2.072 56.686 10.971 110.178 25.698 157.501 51.81-14.726 108.446-23.576 167.473-25.283zM245.711 408.381h-114.176c4.852 76.386 32.158 146.554 75.532 204.264 20.675-11.874 42.959-22.504 66.804-31.598-16.262-52.005-26.088-110.348-28.16-172.666zM245.711 359.619c2.072-62.147 11.849-120.344 28.038-172.251-23.893-9.143-46.153-19.846-66.853-31.768-43.276 57.637-70.51 127.756-75.362 204.020h114.176zM294.449 359.619h193.17v-131.974c-59.002-1.707-115.883-10.021-167.668-24.844-14.604 47.177-23.454 100.401-25.502 156.818zM487.619 178.883v-174.056c-61.635 12.044-115.419 69.291-150.674 152.137 46.421 12.946 97.499 20.285 150.674 21.918zM536.381 4.827v173.885c53.077-2.048 103.936-9.801 150.065-23.162-35.23-82.091-88.771-138.752-150.065-150.723zM536.381 227.474v132.145h193.17c-2.072-57.051-11.118-110.836-26.014-158.403-51.517 15.262-108.178 24.088-167.156 26.258zM778.289 359.619h114.2c-4.925-77.239-32.768-148.139-76.995-206.19-20.285 11.971-42.423 22.528-65.877 31.817 16.579 52.419 26.575 111.397 28.672 174.373zM778.289 408.381c-2.097 63.025-12.093 122.027-28.696 174.494 23.503 9.216 45.397 19.992 65.707 31.939 44.325-58.1 72.265-129.097 77.166-206.434h-114.176zM782.897 652.556c-15.677-8.753-32.207-16.872-49.957-23.918-16.506 39.156-37.108 73.167-60.66 101.303 41.35-19.237 78.872-45.373 110.616-77.385zM351.744 729.966c-23.942-28.599-44.861-63.22-61.513-103.18-18.115 6.949-34.962 15.043-50.956 23.747 32.134 32.89 70.266 59.806 112.469 79.433zM239.104 117.638c15.994 8.753 32.939 16.774 51.029 23.747 16.677-40.034 37.644-74.703 61.611-103.375-42.277 19.7-80.433 46.641-112.64 79.628zM672.28 38.034c23.552 28.16 44.154 62.196 60.684 101.352 17.725-7.070 34.45-15.019 50.103-23.796-31.793-32.085-69.364-58.27-110.787-77.556z"  horiz-adv-x="1024" />

    
    <glyph glyph-name="baobiao" unicode="&#59019;" d="M976-132 48-132C21.504-132 0-110.56 0-84L0 684c0 26.496 21.504 48 48 48C74.496 732 96 710.496 96 684l0-608 0 0 0-112 880 0c26.496 0 48-21.504 48-48C1024-110.56 1002.496-132 976-132zM864 12 768 12c-26.496 0-48 21.504-48 48L720 396c0 26.496 21.504 48 48 48l96 0c26.496 0 48-21.504 48-48l0-336C912 33.44 890.496 12 864 12zM592 12l-96 0C469.504 12 448 33.44 448 60L448 588c0 26.496 21.504 48 48 48l96 0C618.496 636 640 614.496 640 588l0-528C640 33.44 618.496 12 592 12zM320 12 224 12c-26.496 0-48 21.504-48 48l0 96c0 26.496 21.504 48 48 48L320 204c26.496 0 48-21.504 48-48l0-96C368 33.44 346.496 12 320 12z"  horiz-adv-x="1024" />

    
    <glyph glyph-name="database" unicode="&#59239;" d="M512-212c-212.032 0-384 85.952-384 192l0 0 0 108.032C128-18.08 299.968-84 512-84s384 65.92 384 172.032L896-20l0 0C896-126.048 724.032-212 512-212zM512-20c-212.032 0-384 85.952-384 192L128 280.032C128 173.92 299.968 108 512 108s384 65.92 384 172.032L896 172C896 65.952 724.032-20 512-20zM512 172c-212.032 0-384 85.952-384 192L128 472.032C128 365.92 299.968 300 512 300s384 65.92 384 172.032L896 364C896 257.952 724.032 172 512 172zM512 364C299.968 364 128 449.952 128 556L128 620c0 106.048 171.968 192 384 192s384-85.952 384-192l0-64C896 449.952 724.032 364 512 364z"  horiz-adv-x="1024" />

    
    <glyph glyph-name="msnui-alive" unicode="&#59183;" d="M69.284 408.471h53.835q21.534 0 34.748 3.915t25.939 14.682l15.661 15.661q9.788 9.788 20.555 22.513t22.024 25.939 21.045 24.96q19.576 24.471 35.238 19.087t23.492-23.002l43.068-118.438q33.28 92.988 58.729 168.358 10.767 32.301 21.534 63.134t19.576 56.772 14.682 43.068 6.852 22.024q4.894 16.64 14.682 26.918t21.534 10.278q12.725 0 26.428-7.341t17.619-29.854q0.979-5.873 3.915-31.322t7.831-63.624 10.278-84.668 11.256-94.456q12.725-112.565 29.365-251.558 21.534 70.475 39.153 128.226 6.852 24.471 14.193 48.452t13.704 44.047 10.278 33.769 5.873 17.619q4.894 15.661 11.746 23.492t18.598 10.767q22.513 5.873 33.769-6.362t11.256-24.96q0-10.767-1.958-18.598-0.979-3.915-0.979-6.852l35.238-95.925q0.979 0.979 2.936 3.915 2.936 4.894 9.788 20.555 7.831 16.64 25.939 22.024t34.748 4.405q10.767-0.979 21.534-0.979h45.026v-74.391q-5.873-0.979-11.746-0.979h-25.449q-13.704 0.979-25.449-7.341t-16.64-16.151q-3.915-7.831-13.704-30.344t-17.619-46.005q-3.915-11.746-12.725-15.661t-18.108-3.426-17.619 5.384-11.256 11.746-9.788 23.981-13.704 34.748q-8.809 20.555-17.619 44.047-25.449-81.242-46.005-149.76-8.809-29.365-17.619-57.751t-16.151-52.367-12.235-40.621-5.873-22.513q-4.894-23.492-18.598-37.195t-33.28-12.725q-20.555 1.958-29.365 17.619t-10.767 36.216q0 4.894-2.447 30.344t-6.362 64.602-8.32 87.115-9.299 97.882q-10.767 116.48-25.449 260.367-27.407-80.264-48.941-143.887-8.809-27.407-18.108-53.835t-16.64-47.962-12.235-36.216l-5.873-17.619q-4.894-12.725-13.214-23.492t-25.939-9.788q-17.619 0-26.428 12.235t-13.704 27.896q-2.936 7.831-10.767 30.344t-16.64 46.005q-10.767 27.407-22.513 60.687-6.852-8.809-14.682-17.619-6.852-7.831-14.682-17.129t-15.661-18.108q-15.661-18.598-29.365-25.449t-32.301-4.894q-9.788 0.979-25.939 0.489t-32.791-0.489q-18.598-0.979-41.111-0.979v76.348z"  horiz-adv-x="1024" />

    
    <glyph glyph-name="cry" unicode="&#58886;" d="M477.867 156.422c-0-18.851 15.282-34.133 34.133-34.133s34.133 15.282 34.133 34.133c0 18.851-15.282 34.133-34.133 34.133-18.851 0-34.133-15.282-34.133-34.133zM455.111 474.999l22.756-227.556c0-18.842 15.292-34.133 34.133-34.133s34.133 15.292 34.133 34.133l22.756 227.556c0 31.425-25.463 56.889-56.889 56.889s-56.889-25.463-56.889-56.889zM908.925 148.48l-313.708 588.254c-19.456 29.423-48.879 45.466-83.422 45.466-34.52 0-63.966-16.043-83.399-45.466l-313.731-588.254c-21.709-32.791-23.848-72.181-5.848-107.292 17.977-35.089 50.745-55.455 89.247-55.455h627.462c38.48 0 71.27 20.366 89.247 55.455 18 35.135 15.838 74.502-5.848 107.292zM838.702 55.683c-0.273-0.091-0.546-0.25-0.819-0.341h-0.842c-0.592-0.046-1.138-0.364-1.752-0.364-0.637 0-1.161 0.319-1.798 0.364l-628.873 0.91c-0.66-0.046-1.32-0.205-1.98-0.205-20.935 0-37.865 16.93-37.865 37.865 0 10.741 4.483 20.366 11.651 27.238-0.068 0-0.137 0-0.205-0.023l308.679 560.924c4.164 11.036 14.609 19.001 27.102 19.001 11.469 0 21.14-6.758 25.919-16.384 0.137-0.091 0.319-0.137 0.478-0.25l323.288-585.068c2.298-4.255 3.914-8.897 3.914-14.040-0.023-15.519-11.856-27.853-26.897-29.628z"  horiz-adv-x="1024" />

    
    <glyph glyph-name="yemian" unicode="&#58891;" d="M666.662818 384.023225l-84.969884 0L581.692934 808.87506c-121.099895 0-381.03988 0-381.03988 0-23.463618 0-42.486149-19.020117-42.486149-42.486149L158.166905-168.282228c0-23.466033 19.022532-42.486149 42.486149-42.486149l764.733785 0c23.463618 0 42.486149 19.020117 42.486149 42.486149 0 0 0 399.101263 0 552.307868L666.662818 384.02564zM666.662818 468.995524 1005.276922 468.995524c-8.307415 65.302562-35.535934 80.615736-66.440001 111.519803-35.019136 35.019136-59.260366 59.260366-75.582988 75.582988 0.00483-0.00483 0.012075-0.012075 0.016905-0.01932-0.036224 0.036224-0.082108 0.082108-0.118332 0.118332 0.031394-0.033809 0.070033-0.070033 0.101428-0.101428-0.321188 0.321188-0.681015 0.6786-1.074651 1.074651-14.129851 14.129851-22.113663 22.113663-25.922033 25.922033-0.393636 0.393636-0.753463 0.753463-1.074651 1.074651 0.033809-0.033809 0.070033-0.070033 0.101428-0.101428-0.036224 0.036224-0.082108 0.082108-0.118332 0.118332 0.00483-0.00483 0.012075-0.012075 0.016905-0.01932-16.322622 16.322622-40.563852 40.566267-75.582988 75.582988-24.777349 24.779764-44.087259 41.493607-92.934377 47.069717L666.662818 468.995524 666.662818 468.995524z"  horiz-adv-x="1143" />

    
    <glyph glyph-name="tupian" unicode="&#59017;" d="M957.824 18.144c0-41.216-33.728-74.304-74.048-74.304L140.224-56.16c-41.216 0-74.048 33.856-74.048 74.304L66.176 582.176c0 41.152 33.728 73.984 74.048 73.984l742.72 0c41.088 0 73.92-33.728 73.92-73.984l0-564.032L957.824 18.144zM140.224 597.792c-8.192 0-14.784-6.592-14.784-14.784l0-564.864c0-8.32 6.592-14.848 14.784-14.848l742.72 0c8.192 0 14.72 6.592 14.72 14.848L897.664 582.176c0 8.192-6.592 14.784-14.72 14.784L140.224 596.96 140.224 597.792zM274.304 359.328c-49.344 0-88.832 39.424-88.832 88.768 0 49.408 39.424 89.728 88.832 89.728 49.344 0 88.896-39.552 88.896-88.896S323.648 359.328 274.304 359.328L274.304 359.328zM838.592 62.432 185.472 62.432l0 89.536 148.864 148.8 74.048-73.92 237.568 236.8 193.408-193.216 0-208.192-0.896 0L838.464 62.432z"  horiz-adv-x="1024" />

    
    <glyph glyph-name="renzheng" unicode="&#58898;" d="M936.585 746.496l-42.018 0.683c-0.99 0-95.232 2.048-192.546 41.506-99.84 40.55-164.181 87.074-164.762 87.518l-25.395 18.364-25.225-18.364c-0.614-0.444-64.956-46.967-164.762-87.518-97.246-39.492-191.556-41.506-192.444-41.506l-42.223-0.683v-428.066c0-214.903 276.241-442.129 424.755-442.129 148.617 0 424.823 227.226 424.823 442.129l-0.205 428.066zM464.555 198.758l-180.361 153.6 55.467 65.263 115.678-98.475 219.614 252.962 64.853-56.252-275.251-317.099z"  horiz-adv-x="1024" />

    
    <glyph glyph-name="fuzaijunheng" unicode="&#58897;" d="M611.499132 168.593158l0-197.388603 57.924247-31.301913 167.657464 94.494141-0.421602 214.269062-37.380352 20.200064L611.499132 168.593158zM324.985676 486.083116l0-54.719252 185.565323-100.271728 188.19522 98.604762-0.121773 57.202816-185.003528 107.543342L324.985676 486.083116zM574.284555 194.2894l224.228901 124.365472 38.056758-21.106714-0.216941 109.286032-100.124372 58.205657 0-59.323107L512 281.345128 287.771099 405.717763l0 58.984393-100.737332-57.866942L187.033767 297.325078l38.452777 21.329794 224.228901-124.365472 0-248.738108-53.461609-29.655414 113.512287-65.98176 117.5216 66.236564-53.002145 29.399587L574.285578 194.2894zM355.304192-60.295879l56.92857 29.827329-0.421602 199.061708-185.559183 100.271728-39.21821-20.947078 0-210.393801L355.304192-60.295879zM224.037543-129.068196 38.47222-28.796468 38.47222 168.593158l148.562571 79.32465L187.03479 297.325078 1.257643 194.2894l0-248.738108 224.228901-124.371612 170.766268 94.717222-40.948621 23.807219L224.037543-129.068196zM836.570213 297.548158l0.089028-48.88436 148.178831-80.071663 0.421602-199.061708-188.19522-98.598622-127.641075 68.968791-42.136679-23.749914 171.226756-94.972025 224.228901 124.371612L1022.742357 194.2894 836.570213 297.548158zM324.985676 628.758606l187.780781 100.271728 185.559183-100.271728 0.299829-141.858892 37.603433-21.859867L736.228901 654.454848 512 778.82032 287.771099 654.454848l0-189.753715 37.213553 21.38096L324.984652 628.758606z"  horiz-adv-x="1024" />

    
    <glyph glyph-name="cha" unicode="&#58907;" d="M512 844.52883c-254.286 0-460.477666-206.191666-460.477666-460.477666s206.191666-460.477666 460.477666-460.477666 460.477666 206.191666 460.477666 460.477666S766.286 844.52883 512 844.52883zM704.479664 264.736285c20.261017-20.363346 20.261017-53.210752 0-73.369441-10.130509-10.130509-23.330868-15.246927-36.633557-15.246927-13.302688 0-26.503048 5.01409-36.633557 15.246927L512 310.579394 392.68512 191.366843c-10.130509-10.130509-23.330868-15.246927-36.633557-15.246927s-26.503048 5.01409-36.633557 15.246927c-20.261017 20.363346-20.261017 53.210752 0 73.369441l119.212551 119.110223L319.418007 503.161387c-20.261017 20.363346-20.261017 53.210752 0 73.369441s53.108424 20.261017 73.369441 0L512 457.318277l119.31488 119.31488c20.261017 20.261017 53.108424 20.261017 73.369441 0 20.261017-20.363346 20.261017-53.210752 0-73.369441L585.369441 384.051164 704.479664 264.736285z"  horiz-adv-x="1024" />

    
    <glyph glyph-name="shujuku" unicode="&#58902;" d="M192 512h-128c-35.36 0-64-28.64-64-64v-512c0-35.328 28.64-64 64-64h128c35.36 0 64 28.672 64 64v512c0 35.36-28.64 64-64 64zM960 640h-128c-35.36 0-64-28.64-64-64v-640c0-35.328 28.64-64 64-64h128c35.36 0 64 28.672 64 64v640c0 35.36-28.64 64-64 64zM640 896h-256c-35.36 0-64-28.672-64-64v-896c0-35.328 28.64-64 64-64h256c35.36 0 64 28.672 64 64v896c0 35.36-28.64 64-64 64zM576 0h-128v64h128v-64zM576 128h-128v64h128v-64zM576 256h-128v64h128v-64zM576 384h-128v64h128v-64z"  horiz-adv-x="1024" />

    
    <glyph glyph-name="guanlian" unicode="&#58912;" d="M928 0 416 0C380.656 0 352 28.656 352 64L352 448C352 483.344 380.656 512 416 512L512 512C529.68 512 544 497.664 544 480 544 462.32 529.68 448 512 448L416 448 416 64 928 64 928 448 768 448C750.32 448 736 462.32 736 480 736 497.664 750.32 512 768 512L928 512C963.344 512 992 483.344 992 448L992 64C992 28.656 963.344 0 928 0ZM608 256 512 256C494.336 256 480 270.32 480 288 480 305.68 494.336 320 512 320L608 320 608 704 96 704 96 320 256 320C273.68 320 288 305.68 288 288 288 270.32 273.68 256 256 256L96 256C60.656 256 32 284.656 32 320L32 704C32 739.344 60.656 768 96 768L608 768C643.344 768 672 739.344 672 704L672 320C672 284.656 643.344 256 608 256Z"  horiz-adv-x="1024" />

    
    <glyph glyph-name="jiahao" unicode="&#58915;" d="M827 453.999 582.003 453.999 582.003 698.99c0 19.348-15.673 35.014-35 35.014l-69.999 0c-19.327 0-35.007-15.666-35.007-35.014l0-244.991L197 453.999c-19.32 0-35-15.666-35-34.993l0-69.999c0-19.327 15.68-34.993 35-34.993l244.998 0L441.998 69.01c0-19.334 15.68-35.014 35.007-35.014l69.999 0c19.327 0 35 15.68 35 35.014L582.004 314.015 827 314.015c19.334 0 35 15.666 35 34.993l0 69.999C862 438.333 846.334 453.999 827 453.999z"  horiz-adv-x="1024" />

    
    <glyph glyph-name="ditu" unicode="&#58883;" d="M511.008416 827.041442c106.375749 0 203.161073-43.35032 272.881994-112.827695 130.565684-131.055848 149.480476-338.777797 45.754067-490.442008-41.681308-61.553914-101.837386-110.668519-171.780365-139.421376L534.952758-40.719144c-13.174044-13.886265-34.493605-13.886265-47.667649-0.466628l-0.490164 0.466628-0.221034 0.245593L363.907127 84.350362c-69.968561 28.752858-129.633453 77.868485-171.781388 139.421376-103.505375 151.664212-84.590584 359.38616 45.99966 490.442008C307.824831 783.691121 404.387074 827.041442 511.008416 827.041442L511.008416 827.041442zM511.008416 635.855098 511.008416 635.855098c53.653991 0 101.812827-21.073968 136.796596-56.057737 34.983769-35.450397 56.769958-83.609233 56.769958-137.287783 0-53.408397-21.785166-102.057397-56.769958-137.042189-34.983769-34.957163-83.142605-56.524364-136.796596-56.524364-53.67855 0-102.081956 21.566178-137.042189 56.524364-34.983769 34.983769-56.548924 83.633792-56.548924 137.042189 0 53.67855 21.564132 101.837386 56.548924 137.287783C408.925437 614.78113 457.329866 635.855098 511.008416 635.855098L511.008416 635.855098zM619.297748 551.043481 619.297748 551.043481c-27.792996 27.304879-66.141396 44.576241-108.289332 44.576241-42.415019 0-80.517825-17.271362-108.289332-44.576241-27.796066-28.0171-45.042869-66.360384-45.042869-108.534925 0-42.393529 17.246803-80.491219 45.042869-108.289332 27.771507-27.796066 65.874313-44.797275 108.289332-44.797275 42.147936 0 80.496335 17.001209 108.289332 44.797275 27.550473 27.798113 44.797275 65.895803 44.797275 108.289332C664.095024 484.68412 646.848221 523.027403 619.297748 551.043481L619.297748 551.043481zM736.197178 666.521538 736.197178 666.521538c-57.481156 57.505715-137.042189 92.956112-225.189785 92.956112-87.926562 0-167.70863-35.450397-224.968751-92.956112C178.461531 558.72237 162.638147 386.942005 247.939929 261.626905c35.69599-52.230572 86.724177-93.201705 146.389068-116.679419 4.538363-1.667989 9.346879-4.538363 12.685927-7.897877l103.993492-106.132202 103.97098 106.132202 0-0.958838c3.115967 3.827165 7.190773 6.722098 11.506055 8.390088 60.130496 23.235191 111.405299 64.695464 147.3213 117.146047C859.354126 386.942005 843.529719 558.72237 736.197178 666.521538L736.197178 666.521538z"  horiz-adv-x="1024" />

    
    <glyph glyph-name="jiedian" unicode="&#58893;" d="M679.107 213.699c-24.82 0-48.299-5.778-69.218-16.043l-121.1 121.685c8.948 19.822 13.922 41.886 13.922 65.024 0 23.259-4.974 45.202-13.922 65.122l120.588 121.149c20.992-10.459 44.642-16.286 69.73-16.286 87.186 0 157.964 70.949 157.964 158.647 0 87.674-70.68 158.622-157.964 158.622-87.186 0-157.842-70.949-157.842-158.622 0-21.285 4.12-41.472 11.678-59.953l-123.343-123.928c-19.797 8.923-41.643 13.946-64.805 13.946-87.211 0-157.891-70.973-157.891-158.647 0-87.576 70.68-158.647 157.891-158.647 23.064 0 45.032 5.022 64.805 13.97l123.538-124.197c-7.631-18.627-11.971-39.058-11.971-60.514 0-87.625 70.705-158.622 157.891-158.622s157.94 70.949 157.94 158.622c0 87.528-70.632 158.574-157.891 158.574l-0 0.098z"  horiz-adv-x="1024" />

    
    <glyph glyph-name="mima" unicode="&#58906;" d="M762.624 499.45h-27.851v107.914c0 129.735-92.453 231.332-223.801 231.332-131.877 0-221.745-103.762-221.745-231.332v-107.914h-27.85c-61.422 0-111.381-50.711-111.381-113.081v-339.201c0-62.372 49.959-113.081 111.381-113.081h501.248c61.421 0 111.382 50.71 111.382 113.081l-0 339.201c0 62.372-49.961 113.081-111.382 113.081zM344.906 607.364c0 96.34 64.889 174.79 166.065 174.79 100.118 0 168.1-76.772 168.1-174.79v-107.914l-334.165-0v107.914zM818.303 47.168c0-31.185-24.98-56.541-55.679-56.541h-501.248c-30.7 0-55.702 25.355-55.702 56.541v339.201c0 31.186 25.001 56.541 55.702 56.541h501.248c30.699 0 55.679-25.355 55.679-56.541v-339.201zM511.987 329.871c-30.743 0-55.679-25.354-55.679-56.584 0-20.93 11.208-39.188 27.85-48.964v-92.389c0-15.593 12.457-28.226 27.829-28.226 15.395 0 27.851 12.633 27.851 28.226v92.393c16.646 9.777 27.852 28.033 27.852 48.96 0 31.229-24.937 56.584-55.704 56.584z"  horiz-adv-x="1024" />

    
    <glyph glyph-name="duankoujincheng" unicode="&#59043;" d="M918.89622 806.6316l-812.781414 0c-46.406936 0-84.187401-37.780465-84.187401-84.249823l0-550.45994c0-46.406936 37.780465-84.187401 84.187401-84.187401l812.781414 0c46.406936 0 84.187401 37.780465 84.187401 84.187401L1003.083621 722.381777C1003.083621 768.851135 965.303156 806.6316 918.89622 806.6316zM938.605098 171.921837c0-10.893094-8.815783-19.708877-19.708877-19.708877l-812.781414 0c-10.893094 0-19.708877 8.815783-19.708877 19.708877L86.405929 722.381777c0 10.893094 8.815783 19.771299 19.708877 19.771299l812.781414 0c10.893094 0 19.708877-8.878205 19.708877-19.771299L938.605098 171.921837zM784.776593 24.138002 262.210957 24.138002c-17.819854 0-32.239262-14.419408-32.239262-32.239262s14.419408-32.239262 32.239262-32.239262l522.564613 0c17.819854 0 32.239262 14.419408 32.239262 32.239262S802.596448 24.138002 784.776593 24.138002zM821.045635 491.606787l-101.125165 0-51.632961 192.175881-102.888322-259.172761L470.191802 664.514835l-91.050716-203.951065-24.493857 41.684378L203.966415 502.248148c-17.819854 0-32.239262-14.419408-32.239262-32.239262s14.419408-32.239262 32.239262-32.239262l113.781416 0 69.326948-117.748774 79.590709 178.511673 98.732675-248.720711 91.050716 229.452879 13.978363-52.136428 150.617369 0c17.819854 0 32.239262 14.419408 32.239262 32.239262S838.865489 491.606787 821.045635 491.606787z"  horiz-adv-x="1024" />

    
    <glyph glyph-name="unie621" unicode="&#58888;" d="M512 225.015q-90.583 0-168.212 44.833t-122.462 121.989-44.833 168.212 44.833 168.656 122.462 122.462 168.212 44.833 168.212-44.833 122.462-122.462 44.833-168.656-44.833-168.212-122.462-121.989-168.212-44.833zM512 836.824q-74.85 0-138.639-36.966t-100.726-100.726-36.966-138.639q0-114.596 80.853-195.449t195.449-80.853 195.449 80.853 80.853 195.449-80.853 195.449-195.449 80.853zM512 389.53q-70.236 0-120.599 49.919t-50.363 120.599 50.363 121.072 120.599 50.363 120.599-50.363 50.363-120.599q0-35.133-13.397-66.54t-36.493-54.533-54.533-36.493-66.54-13.397zM512 672.309q-30.49 0-55.923-15.26t-40.663-40.663-15.26-55.923 15.26-56.366 40.663-40.663 55.923-14.787q46.223 0 79.019 32.797t32.797 79.019-32.797 79.019-79.019 32.797zM704.225-45.757l-159.872 306.821 214.405 123.852 158.039-303.125-151.562 17.566zM622.899 237.968l75.796-145.086 29.573 70.236 84.106-9.256-77.63 148.783zM319.775-45.757l-61.009 145.086-151.562-17.566 158.039 303.125 214.405-123.852zM295.761 163.118l29.573-70.236 75.796 145.086-111.816 64.706-77.63-148.783z"  horiz-adv-x="1024" />

    
    <glyph glyph-name="gou" unicode="&#58910;" d="M781.477328 502.617875 472.253328 193.393875c-9.006112-9.006112-25.318193-13.109907-38.828372-12.5095-13.610247-0.600407-30.121452 3.502377-39.128575 12.5095l-135.698154 135.798222c-16.912488 16.912488-16.912488 44.432175 0 61.44473 16.912488 16.912488 44.432175 16.912488 61.44473 0l113.281931-113.381999 286.807777 286.807777c16.912488 16.912488 44.432175 16.912488 61.44473 0C798.489884 547.05005 798.489884 519.529352 781.477328 502.617875zM506.578644 816.645135c-241.875263 0-437.9174-196.042137-437.9174-437.9174s196.042137-437.9174 437.9174-437.9174S944.496044 136.852472 944.496044 378.727735 748.453907 816.645135 506.578644 816.645135z"  horiz-adv-x="1024" />

    
    <glyph glyph-name="chaxun" unicode="&#59122;" d="M464.02587 543.895687c-97.130178 0-175.895079-78.764901-175.895079-175.885869 0-97.118921 78.764901-175.875636 175.895079-175.875636 97.128131 0 175.874613 78.756715 175.874613 175.875636C639.900483 465.130785 561.154002 543.895687 464.02587 543.895687zM384.061654 415.984459l-31.970132-95.939049c2.376117 93.311199 0 127.910205 0 127.910205 72.363098 1.7519 159.889547 0 159.889547 0L384.061654 415.984459zM703.861214 831.696462 128.258641 831.696462l0-895.392924 767.481695 0 0 703.523011L703.861214 831.696462zM781.410428 31.180396c-18.739806-18.739806-49.137117-18.739806-67.8759 0l-129.244596 129.294738c-35.357276-20.533662-76.435856-32.299637-120.264061-32.299637-132.462894 0-239.836367 107.36631-239.836367 239.835344 0 132.471081 107.373473 239.836367 239.836367 239.836367 132.442428 0 239.835344-107.365286 239.835344-239.836367 0-53.893444-17.777899-103.631242-47.783283-143.67526L781.410428 99.002061C800.150234 80.299093 800.150234 49.908946 781.410428 31.180396z"  horiz-adv-x="1024" />

    
    <glyph glyph-name="dian" unicode="&#58890;" d="M593.864496-32.126442l-163.728992 0 0 176.008666 163.728992 0L593.864496-32.126442z"  horiz-adv-x="1024" />

    
    <glyph glyph-name="yanzhengma" unicode="&#58908;" d="M835.831386 770.525264 190.58464 770.525264c-68.421322 0-125.57195-56.766888-125.57195-125.18821l0-520.730848c0-68.421322 57.150628-123.607202 125.57195-123.607202l177.856757 0c17.132192 0 31.021527 14.078647 31.021527 31.210839s-13.889335 31.210839-31.021527 31.210839L190.58464 63.420681c-34.21015 0-63.150272 26.974351-63.150272 61.185524L127.434367 645.337053c0 34.21015 28.939099 62.766532 63.150272 62.766532l645.246747 0c34.21015 0 61.129242-28.556383 61.129242-62.766532l0-520.730848c0-34.21015-26.919093-61.185524-61.129242-61.185524L657.974629 63.420681c-17.132192 0-31.021527-14.078647-31.021527-31.210839s13.889335-31.210839 31.021527-31.210839l177.856757 0c68.421322 0 123.55092 55.18588 123.55092 123.607202L959.382307 645.337053C959.382307 713.757353 904.252709 770.525264 835.831386 770.525264zM830.445726 271.225517l0 227.491201c0 17.132192-13.566994 31.021527-30.699186 31.021527s-30.699186-13.889335-30.699186-31.021527l0-195.842387L593.863473 302.874331c-17.132192 0-31.021527-13.566994-31.021527-30.699186s13.889335-30.699186 31.021527-30.699186l206.810183 0C817.805848 241.475959 830.445726 254.093325 830.445726 271.225517zM482.186997 302.874331l-78.587869 0c-17.132192 0-31.021527-13.566994-31.021527-30.699186s13.889335-30.699186 31.021527-30.699186l78.587869 0c17.132192 0 31.021527 13.566994 31.021527 30.699186S499.31919 302.874331 482.186997 302.874331zM296.057833 302.874331l-78.587869 0c-17.132192 0-31.021527-13.566994-31.021527-30.699186s13.889335-30.699186 31.021527-30.699186l78.587869 0c17.132192 0 31.021527 13.566994 31.021527 30.699186S313.190025 302.874331 296.057833 302.874331zM484.255099 530.048307l-78.587869 0c-17.132192 0-31.021527-13.566994-31.021527-30.699186s13.889335-30.699186 31.021527-30.699186l78.587869 0c17.132192 0 31.021527 13.566994 31.021527 30.699186S501.387291 530.048307 484.255099 530.048307zM593.863473 468.649935l78.587869 0c17.132192 0 31.021527 13.566994 31.021527 30.699186s-13.889335 30.699186-31.021527 30.699186l-78.587869 0c-17.132192 0-31.021527-13.566994-31.021527-30.699186S576.73128 468.649935 593.863473 468.649935zM296.057833 530.048307l-78.587869 0c-17.132192 0-31.021527-13.566994-31.021527-30.699186s13.889335-30.699186 31.021527-30.699186l78.587869 0c17.132192 0 31.021527 13.566994 31.021527 30.699186S313.190025 530.048307 296.057833 530.048307z"  horiz-adv-x="1024" />

    
    <glyph glyph-name="baobiao1" unicode="&#58913;" d="M860.693447-42.666661 163.306553-42.666661C133.694432-42.666661 109.661407-18.633636 109.661407 10.978484L109.661407 757.021526C109.661407 786.633647 133.694432 810.666672 163.306553 810.666672L860.693447 810.666672C890.305568 810.666672 914.338593 786.633647 914.338593 757.021526L914.338593 10.978484C914.338593-18.633636 890.305568-42.666661 860.693447-42.666661ZM860.693447 703.966477 163.306553 703.966477 163.306553 10.656614 860.693447 10.656614 860.693447 703.966477ZM807.048302 277.326633 216.951698 277.326633 216.951698 650.643202 807.048302 650.643202 807.048302 277.326633ZM530.185704 429.303331 424.772993 534.072301C423.968316 535.252494 424.236542 536.861848 423.217284 537.881106 417.852769 543.191975 410.8789 545.284136 403.851386 544.962265 396.877517 545.284136 389.903648 543.191975 384.539134 537.881106 383.466231 536.861848 383.788102 535.252494 382.929779 534.072301L277.517068 429.303331C267.485426 419.271689 267.485426 403.070855 277.517068 393.092858 287.602355 383.11486 303.91048 383.11486 313.942122 393.092858L403.851386 482.46567 493.814296 393.092858C503.845938 383.11486 520.154062 383.11486 530.185704 393.092858 540.270992 403.070855 540.270992 419.271689 530.185704 429.303331ZM746.161061 588.575769C745.570965 589.380446 745.83919 590.506994 745.088158 591.258026 743.586094 592.76009 741.386643 592.438219 739.616353 593.511122 739.616353 593.511122 739.562708 593.511122 739.562708 593.511122 737.738773 594.53038 735.914838 595.281412 733.876323 595.871508 733.876323 595.871508 733.876323 595.871508 733.822678 595.871508 733.769033 595.871508 733.769033 595.871508 733.715387 595.871508 731.408646 596.51525 729.101905 597.319927 726.580583 597.319927 726.097777 597.319927 725.722261 597.105347 725.293099 597.051702 724.649358 597.051702 724.112906 597.427218 723.415519 597.319927L619.290291 597.319927C604.484231 597.319927 592.467719 585.410705 592.467719 570.65829 592.467719 555.905875 606.898263 545.659652 646.112864 543.996653L661.133505 543.996653 545.742797 429.303331C535.711154 419.271689 535.711154 403.070855 545.742797 393.092858 555.828084 383.11486 572.136208 383.11486 582.167851 393.092858L699.75801 509.98563 699.75801 464.172676C699.75801 449.31297 711.774523 437.350103 726.580583 437.350103 741.386643 437.350103 753.403156 449.31297 753.403156 464.172676L753.403156 570.497355C753.403156 570.551 753.403156 570.551 753.403156 570.604645 753.403156 570.604645 753.403156 570.65829 753.403156 570.65829 753.403156 574.19887 752.652124 577.524869 751.36464 580.528997 750.345383 583.103964 748.736028 585.196124 747.019383 587.288285 746.697513 587.717446 746.536577 588.200253 746.161061 588.575769ZM592.467719 170.680083 216.951698 170.680083 216.951698 224.003358 592.467719 224.003358 592.467719 170.680083ZM753.403156 63.979888 216.951698 63.979888 216.951698 117.356808 753.403156 117.356808 753.403156 63.979888Z"  horiz-adv-x="1024" />

    
    <glyph glyph-name="fanghuoqiang" unicode="&#58903;" d="M939.070063-114.463953 413.17999-114.463953c-11.296296 0-20.45399 9.049319-20.45399 20.215565l0 127.080618c0 11.162633 9.157694 20.215565 20.45399 20.215565L939.070063 53.047795c11.299908 0 20.45399-9.052932 20.45399-20.215565l0-127.080618C959.524053-105.414633 950.369971-114.463953 939.070063-114.463953zM937.610612 259.556509c11.296296 0 20.457602-9.060157 20.457602-20.22279l0-127.073393c0-11.180696-9.161307-20.22279-20.457602-20.22279L692.191632 92.037536c-11.292683 0-20.45399 9.042094-20.45399 20.22279l0 127.073393c0 11.162633 9.161307 20.22279 20.45399 20.22279L937.610612 259.556509zM939.070063 295.652635 413.17999 295.652635c-11.296296 0-20.45399 9.052932-20.45399 20.215565l0 127.087843c0 11.162633 9.157694 20.211952 20.45399 20.211952L939.070063 463.167995c11.299908 0 20.45399-9.045707 20.45399-20.211952l0-127.087843C959.524053 304.705567 950.369971 295.652635 939.070063 295.652635zM598.700064 500.723573l0 20.211952c-3.099527 66.488111-28.401496 119.989275-35.055726 99.64366-6.657842-20.345615-21.909829-50.542525-21.909829-50.542525-40.680392-57.785592-33.599887 137.199238-33.599887 137.199238-101.616087-88.033077-82.852748-194.399605-80.555197-205.536951l-74.287504 0.466013c0 0-120.650363 195.797643 189.902039 378.355465 0 0-10.63882-74.739067 81.812347-138.637014 3.265702-2.496239 17.23525-14.825711 23.372892-23.105567 59.375093-80.222846 42.620306-201.443985 27.754858-218.05066L598.700064 500.727185zM350.362182 442.956043l0-127.087843c0-11.162633-9.154082-20.215565-20.450377-20.215565L84.489212 295.652635c-11.289071 0-20.450377 9.052932-20.450377 20.215565l0 127.087843c0 11.162633 9.157694 20.211952 20.450377 20.211952l245.422592 0C341.2081 463.167995 350.362182 454.118676 350.362182 442.956043zM84.489212 259.556509l525.897298 0c11.296296 0 20.45399-9.060157 20.45399-20.22279l0-127.073393c0-11.180696-9.157694-20.22279-20.45399-20.22279L84.489212 92.037536c-11.289071 0-20.450377 9.042094-20.450377 20.22279l0 127.073393C64.042447 250.496352 73.200141 259.556509 84.489212 259.556509zM84.489212 53.044183l245.422592 0c11.296296 0 20.450377-9.052932 20.450377-20.215565l0-127.080618c0-11.166246-9.154082-20.215565-20.450377-20.215565L84.489212-114.467565c-11.289071 0-20.450377 9.049319-20.450377 20.215565l0 127.080618C64.042447 43.991251 73.200141 53.044183 84.489212 53.044183z"  horiz-adv-x="1024" />

    
    <glyph glyph-name="feiji" unicode="&#58904;" d="M850.90878 77.940372 452.993095 204.312548l397.915685 473.933009L330.559625 204.312548l-306.077024 126.378316 979.445248 537.112957L850.90878 77.940372zM452.993095-111.627101 452.993095 109.552348l122.4304-63.186088L452.993095-111.627101z"  horiz-adv-x="1024" />

    
    <glyph glyph-name="baobiao2" unicode="&#59179;" d="M492.965116 324.005116 492.965116 744.037045c-223.089746 0-403.909857-188.045689-403.909857-420.031929 0-231.98624 180.82011-420.054509 403.909857-420.054509 223.067166 0 403.909857 188.045689 403.909857 420.054509 0 67.491422-15.422095 131.392635-42.608335 187.84247L492.965116 324.005116 492.965116 324.005116zM912.003528 631.927674c-66.362426 137.556957-203.196825 232.12172-361.346681 232.12172l0-420.054509L912.003528 631.927674 912.003528 631.927674zM912.003528 631.927674"  horiz-adv-x="1024" />

    
    <glyph glyph-name="fuwu" unicode="&#58905;" d="M275 813.1c-111 0-200.9-90-200.9-200.9 0-111 90-200.9 200.9-200.9L476 411.3 476 612.2C476 723.2 386 813.1 275 813.1L275 813.1zM939.7 612.2c0 111-90 200.9-200.9 200.9s-201-90-201-200.9l0-200.9 201 0C849.7 411.3 939.7 501.2 939.7 612.2L939.7 612.2zM74.1 148.5c0-111 90-200.9 200.9-200.9 111 0 200.9 89.9 200.9 200.9L475.9 349.4 275 349.4C164.1 349.4 74.1 259.5 74.1 148.5L74.1 148.5zM738.7 349.4l-201 0 0-200.9c0-111 90-200.9 201-200.9s200.9 90 200.9 200.9C939.7 259.5 849.7 349.4 738.7 349.4L738.7 349.4z"  horiz-adv-x="1024" />

    
    <glyph glyph-name="yonghuzu" unicode="&#58899;" d="M734.976 148.704c-18.944 2.88-19.376 52.608-19.376 52.608s55.648 52.592 67.84 123.312c32.624 0 52.784 75.232 20.16 101.632 1.344 27.84 41.968 218.656-163.6 218.656s-164.928-190.752-163.6-218.672c-32.624-26.464-12.464-101.632 20.16-101.632 12.192-70.704 67.84-123.312 67.84-123.312s-0.432-49.712-19.376-52.608c-61.056-9.216-289.024-105.184-289.024-210.384h768c0 105.2-227.968 201.168-289.024 210.4zM344.064 131.952c44.096 26.112 97.6 50.32 141.568 64.928-15.76 21.536-33.28 50.912-44.352 85.712-15.44 12.080-27.968 29.392-35.968 50.656-8.064 21.232-11.12 45.072-8.624 67.072 1.792 15.76 6.432 30.496 13.616 43.424-4.368 44.832-7.44 132.848 52.48 197.056 23.248 24.88 52.528 42.8 87.68 53.568-6.272 62.224-39.184 135.328-166.464 135.328-205.568 0-164.928-190.768-163.6-218.672-32.624-26.464-12.464-101.632 20.16-101.632 12.192-70.72 67.84-123.312 67.84-123.312s-0.432-49.712-19.376-52.608c-61.056-9.216-289.024-105.184-289.024-210.4h329.6c4.752 2.96 9.472 5.936 14.464 8.88z"  horiz-adv-x="1024" />

    
    <glyph glyph-name="loginyonghu" unicode="&#58909;" d="M512-128c-282.624 0-512 229.376-512 512s229.376 512 512 512c282.624 0 512-229.376 512-512s-229.376-512-512-512zM512 838.656c-249.856 0-454.656-204.8-454.656-454.656s204.8-454.656 454.656-454.656c249.856 0 454.656 204.8 454.656 454.656s-204.8 454.656-454.656 454.656zM212.992 15.36l-49.152 20.48c16.384 36.864 61.44 57.344 114.688 81.92 53.248 24.576 114.688 53.248 114.688 86.016v45.056c-16.384 16.384-49.152 49.152-53.248 98.304-16.384 12.288-40.96 40.96-40.96 77.824 0 20.48 8.192 36.864 16.384 49.152-4.096 24.576-12.288 69.632-12.288 106.496 0 118.784 81.92 192.512 208.896 192.512 36.864 0 81.92-8.192 106.496-36.864 57.344-8.192 102.4-77.824 102.4-159.744 0-49.152-8.192-94.208-16.384-114.688 4.096-8.192 12.288-24.576 12.288-40.96 0-40.96-20.48-65.536-36.864-77.824-4.096-49.152-32.768-81.92-49.152-94.208v-45.056c0-28.672 53.248-49.152 102.4-65.536 57.344-20.48 118.784-45.056 135.168-94.208l-49.152-20.48c-8.192 24.576-57.344 45.056-102.4 61.44-65.536 24.576-139.264 53.248-139.264 118.784v77.824l12.288 8.192c0 0 36.864 24.576 36.864 73.728v20.48l16.384 8.192c4.096 0 20.48 12.288 20.48 36.864 0 8.192-4.096 16.384-8.192 20.48l-12.288 12.288 4.096 16.384c0 0 16.384 49.152 16.384 110.592 0 53.248-28.672 102.4-61.44 102.4h-16.384l-8.192 12.288c-4.096 8.192-32.768 20.48-65.536 20.48-94.208 0-151.552-53.248-151.552-139.264 0-40.96 12.288-106.496 16.384-106.496l4.096-16.384-16.384-16.384c0 0-8.192-8.192-8.192-20.48 0-16.384 20.48-36.864 28.672-40.96l12.288-8.192v-12.288c0-45.056 40.96-73.728 40.96-73.728l12.288-8.192v-77.824c0-69.632-77.824-106.496-147.456-139.264-36.864-16.384-81.92-36.864-90.112-49.152z"  horiz-adv-x="1024" />

    
    <glyph glyph-name="zonglan" unicode="&#58894;" d="M371.733 801.828q25.773 0 44.112-17.843t18.339-43.617v-247.822q0-25.773-18.339-44.112t-44.112-18.339h-247.822q-25.773 0-43.617 18.339t-17.843 44.112v247.822q0 25.773 17.843 43.617t43.617 17.843h247.822zM371.733 306.184q25.773 0 44.112-17.843t18.339-43.617v-248.813q0-25.773-18.339-43.617t-44.112-17.843h-247.822q-25.773 0-43.617 17.843t-17.843 43.617v248.813q0 25.773 17.843 43.617t43.617 17.843h247.822zM868.368 306.184q25.773 0 43.617-17.843t17.843-43.617v-248.813q0-25.773-17.843-43.617t-43.617-17.843h-247.822q-25.773 0-44.112 17.843t-18.339 43.617v248.813q0 25.773 18.339 43.617t44.112 17.843h247.822zM1006.157 692.786q19.826-19.826 19.826-46.591t-19.826-45.599l-184.379-184.379q-19.826-19.826-46.095-19.826t-46.095 19.826l-184.379 184.379q-18.834 18.834-18.834 45.599t18.834 46.591l184.379 184.379q19.826 18.834 46.095 18.834t46.095-18.834z"  horiz-adv-x="1026" />

    
    <glyph glyph-name="wangluo" unicode="&#58900;" d="M755.851309 579.167005l178.396039 0c23.8942-53.159734 38.214347-111.397113 40.612976-172.866093L770.170432 406.300912C769.303692 471.283925 763.931335 528.525628 755.851309 579.167005L755.851309 579.167005zM677.889703 823.760722c102.32755-39.773865 186.317453-115.02985 238.96758-210.025411L750.013347 613.735311C731.080136 710.495052 702.339558 779.262252 677.889703 823.760722L677.889703 823.760722zM528.466532 613.738381 528.466532 855.035006c36.799114-1.613754 72.486918-7.432273 106.641809-17.002232 25.927509-43.559075 59.33027-116.319216 80.429821-224.296439L528.466532 613.736335 528.466532 613.738381 528.466532 613.738381zM301.473681 198.866513c-8.080026 50.677193-13.681604 107.591437-14.515598 172.865069l206.928886 0 0-172.865069L301.473681 198.866513 301.473681 198.866513zM301.13599 579.167005l192.750979 0 0-172.866093L286.761608 406.300912C287.634488 471.336114 293.050848 528.506185 301.13599 579.167005L301.13599 579.167005zM387.695415 838.79309c34.081213 9.149381 69.505004 15.007809 106.191554 16.184611L493.886969 613.738381 306.835805 613.738381C328.058153 722.321402 361.711624 795.327136 387.695415 838.79309L387.695415 838.79309zM100.414479 613.738381c53.509704 96.550986 140.131551 172.22141 244.798379 211.44576-24.612561-44.471864-53.770648-113.647363-72.89931-211.44576L100.414479 613.738381 100.414479 613.738381zM252.179998 406.300912 43.132868 406.300912c2.307555 61.429071 16.120143 119.809713 39.96727 172.866093l183.412286 0C258.428306 528.514371 253.048785 471.278809 252.179998 406.300912L252.179998 406.300912zM266.911514 198.866513 84.414063 198.866513C60.470745 252.095831 45.142641 310.055894 42.879088 371.731582l209.465662 0C253.177722 306.45488 258.823302 249.586684 266.911514 198.866513L266.911514 198.866513zM272.5837 164.297183c19.268856-98.776677 48.836265-167.876452 73.604368-211.833593-105.044428 39.093367-191.706183 115.030873-245.281379 211.833593L272.5837 164.297183 272.5837 164.297183zM493.887992 164.297183l0-241.243413c-36.276205 1.164522-71.323419 6.89913-105.051591 15.861246-26.030863 42.661635-59.878762 116.005061-81.302701 225.382167L493.887992 164.297183 493.887992 164.297183zM714.839243 164.297183c-21.293979-108.720144-54.868655-181.815929-80.84119-224.581941-33.762965-9.369392-69.194942-14.422478-105.531522-16.034185L528.466532 164.297183 714.839243 164.297183 714.839243 164.297183zM528.466532 371.731582l206.928886 0c-0.832971-65.281819-6.439666-122.18276-14.519692-172.865069L528.466532 198.866513 528.466532 371.731582 528.466532 371.731582zM735.590869 406.300912 528.466532 406.300912 528.466532 579.167005l192.749956 0C729.303676 528.510278 734.715943 471.339184 735.590869 406.300912L735.590869 406.300912zM770.01182 371.731582 974.487841 371.731582c-2.285043-61.626569-17.499559-119.611192-41.323151-172.865069L755.445056 198.866513C763.530199 249.583614 769.177825 306.44567 770.01182 371.731582L770.01182 371.731582zM916.606573 164.297183c-52.511981-95.388511-136.89688-170.688497-239.668545-210.373335 24.615631 44.013423 53.80237 112.616894 72.871681 210.373335L916.606573 164.297183 916.606573 164.297183z"  horiz-adv-x="1024" />

    
    <glyph glyph-name="yonghuzu1" unicode="&#58901;" d="M192.664509 630.989277c0-115.818819 86.583984-209.707163 193.383382-209.707163 106.803491 0 193.381335 93.888344 193.381335 209.707163 0 115.809609-86.576821 209.698976-193.381335 209.698976C279.243377 840.688253 192.664509 746.79991 192.664509 630.989277L192.664509 630.989277M501.311055 413.253254c-33.259498-25.764803-72.816422-40.706097-115.26214-40.706097-42.446741 0-82.002642 14.942317-115.26214 40.706097C125.986901 354.983129 21.577946 189.952492 21.577946-4.549364c0-11.406794 0.356111-22.716374 1.060145-33.905204l726.817554 0c0.705058 11.18883 1.061169 22.494317 1.061169 33.905204 0 194.501856-104.403838 359.533516-249.209852 417.802618L501.311055 413.253254M501.311055 413.253254 501.311055 413.253254zM692.525028 699.910996c-36.549427 0-70.293973-12.424984-97.591689-33.403784 5.431709-9.609869 8.988722-20.535709 10.645454-31.490202 1.991354-13.160741 2.579755-26.948769-0.028653-39.590694 0.038886-17.219173-2.142803-34.400484-6.683213-50.738591-9.795087-35.233456-29.02301-64.966641-55.105039-88.522126 26.288736-58.027601 82.993203-98.217952 148.763139-98.217952 90.813309 0 164.42791 76.55456 164.42791 170.985256C856.952938 623.358483 783.338337 699.910996 692.525028 699.910996L692.525028 699.910996zM790.527063 345.78156c-28.278043-21.905916-61.910025-34.607192-98.003058-34.607192-9.343809 0-18.509563 0.8913-27.471678 2.542916 33.095769-27.193339 54.757115-74.607208 70.994937-118.100792 8.29799-20.517289 15.425318-41.764196 22.022573-62.677505 14.97097-47.461965 25.021883-100.390431 19.514449-150.882406 0.524956-6.78452 0.874927-13.571087 1.01512-20.343327l222.918046 0c0.599657 9.513678 0.902556 19.127639 0.902556 28.825512C1002.422054 155.912212 913.652288 296.238191 790.527063 345.78156L790.527063 345.78156zM790.530133 345.78156 790.530133 345.78156z"  horiz-adv-x="1024" />

    
    <glyph glyph-name="xinxicaiji" unicode="&#58914;" d="M237.043764 768.833739l553.530882 0c9.414417 0 17.284665 7.814989 17.284665 17.45965L807.859311 820.560844c0 9.788947-7.735172 17.45965-17.284665 17.45965L237.043764 838.020494c-9.414417 0-17.279548-7.814989-17.279548-17.45965l0-34.268478C219.765239 776.503419 227.500411 768.833739 237.043764 768.833739zM150.603043 647.753079l726.413348 0c9.544377 0 17.324574 7.820106 17.324574 17.458627L894.340965 699.481208c0 9.794064-7.755638 17.458627-17.324574 17.458627L150.603043 716.939835c-9.544377 0-17.324574-7.814989-17.324574-17.458627l0-34.268478C133.278469 655.423783 141.034107 647.753079 150.603043 647.753079zM727.254505 263.622352c-5.411243 5.221932-11.728112 9.309016-18.943444 12.252045-7.220449 2.948145-14.851243 4.417613-22.900569 4.417613l-9.993608 0-39.559994 69.50705c6.111185 5.357008 10.967796 11.648294 14.575973 18.877953 3.608178 7.235798 5.411243 15.135722 5.411243 23.704888 0 7.769964-1.523703 15.135722-4.577249 22.096251-3.053546 6.965645-7.290033 13.057387-12.7023 18.278295-5.411243 5.221932-11.657504 9.309016-18.738783 12.252045-7.075139 2.948145-14.780635 4.422729-23.110347 4.422729-8.324596 0-16.030092-1.474584-23.105231-4.422729-7.080256-2.943029-13.256932-7.031137-18.527982-12.252045-5.27719-5.221932-9.438976-11.31265-12.492522-18.278295-3.057639-6.960529-4.582365-14.326287-4.582365-22.096251 0-8.570189 1.733481-16.470113 5.206582-23.704888 3.467985-7.230682 8.255011-13.521968 14.361079-18.877953L485.959927 195.124282c-2.783393 0.539282-5.001921 0.804319-6.665817 0.804319-4.442172 0-8.674567-0.535189-12.697183-1.608637-4.027733-1.069355-7.844665-2.408863-11.452843-4.0175l-71.200622 86.781482c2.77316 4.551666 4.991688 9.438976 6.6607 14.660908 1.663896 5.221932 2.498914 10.648524 2.498914 16.269545 0 7.769964-1.528819 15.135722-4.577249 22.096251-3.057639 6.965645-7.290033 12.991895-12.7023 18.078751-5.411243 5.091972-11.657504 9.109472-18.738783 12.0525-7.075139 2.948145-14.780635 4.417613-23.105231 4.417613-8.055466 0-15.685237-1.469468-22.905686-4.417613-7.215332-2.943029-13.461593-6.960529-18.738783-12.0525-5.272074-5.086855-9.43386-11.113105-12.492522-18.078751-3.053546-6.965645-4.577249-14.326287-4.577249-22.096251 0-7.764847 1.523703-15.065114 4.577249-21.89159 3.057639-6.830569 7.220449-12.792351 12.492522-17.879206 5.27719-5.091972 11.522428-9.109472 18.738783-12.0525 7.220449-2.948145 14.851243-4.422729 22.905686-4.422729 1.663896 0 3.187599 0.069585 4.577249 0.199545 1.384533 0.135076 2.778276 0.199545 4.167926 0.199545l81.19423-94.811366c-1.393743-2.677992-2.293229-5.621021-2.708692-8.834202-0.414439-3.218298-0.624217-6.565533-0.624217-10.04375 0-7.769964 1.523703-15.135722 4.577249-22.096251 3.057639-6.965645 7.220449-12.991895 12.492522-18.078751 5.27719-5.091972 11.522428-9.109472 18.738783-12.0525 7.220449-2.948145 14.851243-4.422729 22.900569-4.422729s15.685237 1.474584 22.905686 4.422729c7.215332 2.943029 13.461593 6.960529 18.733667 12.0525 5.276167 5.086855 9.438976 11.113105 12.492522 18.078751 3.053546 6.960529 4.582365 14.326287 4.582365 22.096251 0 6.426363-1.039679 12.517081-3.123131 18.273179-2.083451 5.761214-4.927219 11.18269-8.53949 16.274662l70.370721 151.860686 40.389896-69.501934c-3.053546-4.551666-5.551436-9.574053-7.495718-15.066137s-2.913353-11.317767-2.913353-17.473977c0-7.769964 1.528819-15.135722 4.582365-22.096251 3.053546-6.965645 7.215332-12.991895 12.487406-18.078751 5.27719-5.091972 11.522428-9.104355 18.742876-12.0525 7.215332-2.948145 14.851243-4.422729 22.900569-4.422729 8.05035 0 15.680121 1.473561 22.900569 4.422729 7.215332 2.948145 13.531178 6.960529 18.943444 12.0525 5.41636 5.086855 9.648754 11.113105 12.7023 18.078751 3.053546 6.960529 4.582365 14.326287 4.582365 22.096251 0 8.035-1.528819 15.530718-4.582365 22.496363C736.90326 252.304585 732.670865 258.400421 727.254505 263.622352zM928.819221 595.865315 98.800213 595.865315c-19.097964 0-34.7085-15.510252-34.7085-34.648125l0-587.994812c0-19.042705 15.535835-34.643008 34.7085-34.643008l830.019007 0c19.097964 0 34.713616 15.510252 34.713616 34.643008L963.532837 561.217191C963.532837 580.265012 947.992909 595.865315 928.819221 595.865315zM894.340965 25.030325c0-9.534144-7.780197-17.264199-17.324574-17.264199L150.603043 7.766127c-9.568936 0-17.324574 7.740288-17.324574 17.264199L133.278469 509.409245c0 9.534144 7.780197 17.264199 17.324574 17.264199l726.413348 0c9.568936 0 17.324574-7.735172 17.324574-17.264199L894.340965 25.030325z"  horiz-adv-x="1024" />

    
    <glyph glyph-name="fangzi" unicode="&#59005;" d="M956.928514 448.038554c-14.187952 16.719679-392.443373 314.383936-416.938153 342.875502-16.102811 18.724498-54.48996 18.403213-70.605622 0C451.392771 770.403213 71.697992 471.453815 51.688353 447.190361c-14.676305-17.773494 1.529317-41.085944 34.917269-41.085944 5.538956 0 31.023293 0 69.744578 0l0-395.97751c0-21.770281 17.850602-39.415261 39.877912-39.415261l253.571084 0L449.799197 242.326104l109.648193 0L559.44739-29.301205l253.571084 0c22.027309 0 39.877912 17.64498 39.877912 39.415261L852.896386 406.091566c39.582329 0 64.976707 0 68.909237 0C952.109237 406.091566 974.650602 427.193574 956.928514 448.038554z"  horiz-adv-x="1024" />

    
    <glyph glyph-name="del" unicode="&#58916;" d="M512 431.734154L337.053538 606.72a33.752615 33.752615 0 1 1-47.734153-47.734154L464.226462 384l-174.985847-174.946462a33.752615 33.752615 0 1 1 47.734154-47.734153L512 336.22646199999997l174.946462-174.985847a33.752615 33.752615 0 1 1 47.734153 47.734154L559.773538 384l174.985847 174.946462a33.752615 33.752615 0 1 1-47.734154 47.734153L512 431.773538z"  horiz-adv-x="1024" />

    
    <glyph glyph-name="iconfontyuan" unicode="&#58917;" d="M512.007 533.026c-82.308 0-149.029-66.712-149.029-149.025 0-82.298 66.723-149.026 149.030-149.026 82.3 0 149.017 66.728 149.017 149.026 0.001 82.313-66.714 149.025-149.017 149.025z"  horiz-adv-x="1024" />

    


  </font>
</defs>
</svg>
