<?xml version="1.0" encoding="utf-8"?>
<!-- Generator: Adobe Illustrator 17.0.0, SVG Export Plug-In . SVG Version: 6.00 Build 0)  -->
<!DOCTYPE svg PUBLIC "-//W3C//DTD SVG 1.1//EN" "http://www.w3.org/Graphics/SVG/1.1/DTD/svg11.dtd">
<svg version="1.1" id="图层_1" xmlns="http://www.w3.org/2000/svg" xmlns:xlink="http://www.w3.org/1999/xlink" x="0px" y="0px"
	 width="16px" height="16px" viewBox="0 0 16 16" enable-background="new 0 0 16 16" xml:space="preserve">
<g>
	<g>
		<g>
			
				<linearGradient id="SVGID_1_" gradientUnits="userSpaceOnUse" x1="2.6458" y1="-907.7825" x2="14.5571" y2="-905.0326" gradientTransform="matrix(1 0 0 -1 0 -901.5537)">
				<stop  offset="0" style="stop-color:#E72121"/>
				<stop  offset="0.0345" style="stop-color:#C51D20"/>
				<stop  offset="0.0723" style="stop-color:#A51B1F"/>
				<stop  offset="0.1077" style="stop-color:#8E191E"/>
				<stop  offset="0.1391" style="stop-color:#80181D"/>
				<stop  offset="0.1636" style="stop-color:#7B181C"/>
				<stop  offset="0.2909" style="stop-color:#E72121"/>
				<stop  offset="0.2962" style="stop-color:#E72323"/>
				<stop  offset="0.341" style="stop-color:#E73134"/>
				<stop  offset="0.3792" style="stop-color:#E8383F"/>
				<stop  offset="0.4061" style="stop-color:#E83A42"/>
				<stop  offset="0.4288" style="stop-color:#D23238"/>
				<stop  offset="0.4729" style="stop-color:#AC252A"/>
				<stop  offset="0.5126" style="stop-color:#911D22"/>
				<stop  offset="0.5462" style="stop-color:#81191E"/>
				<stop  offset="0.5697" style="stop-color:#7B181C"/>
				<stop  offset="0.6029" style="stop-color:#80191D"/>
				<stop  offset="0.6465" style="stop-color:#8F1C21"/>
				<stop  offset="0.6961" style="stop-color:#A62328"/>
				<stop  offset="0.7495" style="stop-color:#C82E34"/>
				<stop  offset="0.7939" style="stop-color:#E83A42"/>
				<stop  offset="1" style="stop-color:#E72121"/>
			</linearGradient>
			<path fill="url(#SVGID_1_)" d="M3.922,10.593c0.629-0.455,1.168-1.069,1.963-1.303c0.983-0.289,2.002,0.297,2.97-0.124
				c1.238-0.538,1.813-1.98,2.97-2.634c1.094-0.618,2.28,0.282,3.452,0.065c-1.281-0.883-2.174-2.982-3.824-3.173
				c-1.008-0.117-1.846,0.486-2.829-0.053C7.513,2.763,6.99,1.536,5.783,1.128c-1.16-0.392-2.292,0.584-3.35,0.584
				C2.433,5.496,3.501,10.898,3.922,10.593z"/>
		</g>
		<g>
			
				<linearGradient id="SVGID_2_" gradientUnits="userSpaceOnUse" x1="2.6458" y1="-907.7825" x2="14.5571" y2="-905.0326" gradientTransform="matrix(1 0 0 -1 0 -901.5537)">
				<stop  offset="0.0788" style="stop-color:#E7231C"/>
				<stop  offset="0.2909" style="stop-color:#E7231C"/>
				<stop  offset="0.2951" style="stop-color:#E72720"/>
				<stop  offset="0.3142" style="stop-color:#E8332B"/>
				<stop  offset="0.3359" style="stop-color:#E83A34"/>
				<stop  offset="0.3622" style="stop-color:#E83D39"/>
				<stop  offset="0.4061" style="stop-color:#E83E3A"/>
				<stop  offset="0.4327" style="stop-color:#E83731"/>
				<stop  offset="0.4782" style="stop-color:#E72C24"/>
				<stop  offset="0.5225" style="stop-color:#E7241D"/>
				<stop  offset="0.5636" style="stop-color:#E7211A"/>
				<stop  offset="0.6432" style="stop-color:#E72E26"/>
				<stop  offset="0.7939" style="stop-color:#E83E3B"/>
				<stop  offset="1" style="stop-color:#E7231C"/>
			</linearGradient>
			<path fill="url(#SVGID_2_)" d="M3.922,10.593c0.629-0.455,1.168-1.069,1.963-1.303c0.983-0.289,2.002,0.297,2.97-0.124
				c1.238-0.538,1.813-1.98,2.97-2.634c1.094-0.618,2.28,0.282,3.452,0.065c-1.281-0.883-2.174-2.982-3.824-3.173
				c-1.008-0.117-1.846,0.486-2.829-0.053C7.513,2.763,6.99,1.536,5.783,1.128c-1.16-0.392-2.292,0.584-3.35,0.584
				C2.433,5.496,3.501,10.898,3.922,10.593z"/>
		</g>
		<defs>
			<filter id="Adobe_OpacityMaskFilter" filterUnits="userSpaceOnUse" x="2.433" y="1.43" width="2.969" height="8.938">
				<feFlood  style="flood-color:white;flood-opacity:1" result="back"/>
				<feBlend  in="SourceGraphic" in2="back" mode="normal"/>
			</filter>
		</defs>
		<mask maskUnits="userSpaceOnUse" x="2.433" y="1.43" width="2.969" height="8.938" id="SVGID_3_">
			<g filter="url(#Adobe_OpacityMaskFilter)">
				<defs>
					<filter id="Adobe_OpacityMaskFilter_1_" filterUnits="userSpaceOnUse" x="2.433" y="1.43" width="2.969" height="8.938">
						<feFlood  style="flood-color:white;flood-opacity:1" result="back"/>
						<feBlend  in="SourceGraphic" in2="back" mode="normal"/>
					</filter>
				</defs>
				<mask maskUnits="userSpaceOnUse" x="2.433" y="1.43" width="2.969" height="8.938" id="SVGID_3_">
					<g filter="url(#Adobe_OpacityMaskFilter_1_)">
					</g>
				</mask>
				<linearGradient id="SVGID_4_" gradientUnits="userSpaceOnUse" x1="3.2874" y1="6.0382" x2="5.0213" y2="5.6576">
					<stop  offset="0" style="stop-color:#FFFFFF"/>
					<stop  offset="0.1015" style="stop-color:#FCFCFC"/>
					<stop  offset="0.1692" style="stop-color:#F3F3F3"/>
					<stop  offset="0.227" style="stop-color:#E4E4E4"/>
					<stop  offset="0.2793" style="stop-color:#CFCFCF"/>
					<stop  offset="0.3278" style="stop-color:#B3B3B3"/>
					<stop  offset="0.3736" style="stop-color:#919191"/>
					<stop  offset="0.4173" style="stop-color:#696969"/>
					<stop  offset="0.4592" style="stop-color:#3A3A3A"/>
					<stop  offset="0.4984" style="stop-color:#070707"/>
					<stop  offset="0.503" style="stop-color:#000000"/>
					<stop  offset="1" style="stop-color:#000000"/>
				</linearGradient>
				<path mask="url(#SVGID_3_)" fill="url(#SVGID_4_)" d="M2.436,2.014c0.001,0.09,0.001,0.181,0.003,0.273l1.771,8.081c0,0,0,0,0,0
					C4.569,10.06,4.963,9.724,5.402,9.49L3.634,1.43c-0.409,0.149-0.81,0.282-1.201,0.282c0,0.087,0.001,0.175,0.002,0.263
					C2.435,1.988,2.436,2.001,2.436,2.014z"/>
			</g>
		</mask>
		<linearGradient id="SVGID_5_" gradientUnits="userSpaceOnUse" x1="3.2874" y1="6.0382" x2="5.0213" y2="5.6576">
			<stop  offset="0" style="stop-color:#B3B3B3"/>
			<stop  offset="0.1556" style="stop-color:#B6B6B6"/>
			<stop  offset="0.2592" style="stop-color:#BFBFBF"/>
			<stop  offset="0.3477" style="stop-color:#CECECE"/>
			<stop  offset="0.4272" style="stop-color:#E3E3E3"/>
			<stop  offset="0.5009" style="stop-color:#FEFEFE"/>
			<stop  offset="0.503" style="stop-color:#FFFFFF"/>
			<stop  offset="1" style="stop-color:#FFFFFF"/>
		</linearGradient>
		<path fill="url(#SVGID_5_)" d="M2.436,2.014c0.001,0.09,0.001,0.181,0.003,0.273l1.771,8.081c0,0,0,0,0,0
			C4.569,10.06,4.963,9.724,5.402,9.49L3.634,1.43c-0.409,0.149-0.81,0.282-1.201,0.282c0,0.087,0.001,0.175,0.002,0.263
			C2.435,1.988,2.436,2.001,2.436,2.014z"/>
		<path fill="#141413" d="M5.707,15.649c0.048,0.217-0.091,0.433-0.307,0.48l-0.492,0.108c-0.217,0.047-0.433-0.091-0.48-0.307
			L1.283,1.597C1.236,1.381,1.374,1.165,1.59,1.117l0.492-0.108C2.299,0.962,2.515,1.1,2.562,1.316L5.707,15.649z"/>
		
			<rect x="3.431" y="1.15" transform="matrix(-0.9768 0.2143 -0.2143 -0.9768 9.1016 16.2533)" fill="#535353" width="0.477" height="14.94"/>
		<linearGradient id="SVGID_6_" gradientUnits="userSpaceOnUse" x1="2.2616" y1="6.1977" x2="3.599" y2="5.9134">
			<stop  offset="0.1333" style="stop-color:#B41D23"/>
			<stop  offset="0.1612" style="stop-color:#BB1D22"/>
			<stop  offset="0.3175" style="stop-color:#DB201E"/>
			<stop  offset="0.3939" style="stop-color:#E7231C"/>
			<stop  offset="0.5594" style="stop-color:#E7231C"/>
			<stop  offset="0.5879" style="stop-color:#E7231C"/>
			<stop  offset="0.683" style="stop-color:#E5221C"/>
			<stop  offset="0.772" style="stop-color:#DE211D"/>
			<stop  offset="0.8585" style="stop-color:#D31E1F"/>
			<stop  offset="0.9431" style="stop-color:#C21D21"/>
			<stop  offset="1" style="stop-color:#B41D23"/>
		</linearGradient>
		<polygon fill="url(#SVGID_6_)" points="1.364,1.977 3.217,10.415 4.496,10.134 2.644,1.697 		"/>
		
			<rect x="-1.221" y="5.78" transform="matrix(-0.2144 -0.9768 0.9768 -0.2144 -2.1168 10.335)" fill="#F19797" width="8.638" height="0.477"/>
		<g>
			<linearGradient id="SVGID_7_" gradientUnits="userSpaceOnUse" x1="10.8229" y1="5.2258" x2="13.0689" y2="4.7328">
				<stop  offset="0" style="stop-color:#E7231C"/>
				<stop  offset="0.0058" style="stop-color:#E7281E"/>
				<stop  offset="0.0977" style="stop-color:#EA583D"/>
				<stop  offset="0.1953" style="stop-color:#EE795E"/>
				<stop  offset="0.2974" style="stop-color:#F1937E"/>
				<stop  offset="0.405" style="stop-color:#F4A89A"/>
				<stop  offset="0.52" style="stop-color:#F6B8B0"/>
				<stop  offset="0.646" style="stop-color:#F7C3C0"/>
				<stop  offset="0.7913" style="stop-color:#F8CAC9"/>
				<stop  offset="1" style="stop-color:#F8CCCC"/>
			</linearGradient>
			<path fill="url(#SVGID_7_)" d="M12.911,4.153c-0.429-0.38-0.9-0.663-1.458-0.728c-0.354-0.041-0.686,0.007-1.012,0.063
				l0.807,3.467c0.178-0.16,0.368-0.303,0.577-0.421c0.519-0.294,1.059-0.245,1.609-0.136L12.911,4.153z"/>
			<linearGradient id="SVGID_8_" gradientUnits="userSpaceOnUse" x1="5.7452" y1="5.388" x2="7.9865" y2="4.8591">
				<stop  offset="0" style="stop-color:#E7231C"/>
				<stop  offset="0.0058" style="stop-color:#E7281E"/>
				<stop  offset="0.0977" style="stop-color:#EA583D"/>
				<stop  offset="0.1953" style="stop-color:#EE795E"/>
				<stop  offset="0.2974" style="stop-color:#F1937E"/>
				<stop  offset="0.405" style="stop-color:#F4A89A"/>
				<stop  offset="0.52" style="stop-color:#F6B8B0"/>
				<stop  offset="0.646" style="stop-color:#F7C3C0"/>
				<stop  offset="0.7913" style="stop-color:#F8CAC9"/>
				<stop  offset="1" style="stop-color:#F8CCCC"/>
			</linearGradient>
			<path fill="url(#SVGID_8_)" d="M8.933,9.131L7.337,2.275c-0.452-0.47-0.904-0.928-1.554-1.148
				C5.433,1.01,5.086,1.016,4.744,1.082l1.893,8.127C7.38,9.234,8.132,9.482,8.855,9.167C8.882,9.155,8.907,9.143,8.933,9.131z"/>
		</g>
	</g>
	<image overflow="visible" width="61" height="9" xlink:href="E3501119.png"  transform="matrix(0.24 0 0 0.24 1.1109 14.9341)">
	</image>
</g>
</svg>
